<?xml version="1.0" encoding="utf-8"?>
<!-- Generator: Adobe Illustrator 24.2.0, SVG Export Plug-In . SVG Version: 6.00 Build 0)  -->
<svg version="1.1" id="Layer_1" xmlns="http://www.w3.org/2000/svg" xmlns:xlink="http://www.w3.org/1999/xlink" x="0px" y="0px"
	 viewBox="0 0 216 73" style="enable-background:new 0 0 216 73;" xml:space="preserve">
<style type="text/css">
	.st0{fill:#000212;}
</style>
<g>
	<g>
		<path class="st0" d="M48.2,59.7h10V19.3h-10V59.7z M30.1,19.3C18.9,15.1,10,21.7,10,21.7l-1.8-2.4H0V73l9.9,0V56.2
			c0,0,5.4,4,12.6,4c12.4,0,22.4-10.7,21.1-23.3C42.9,29,37.5,22.1,30.1,19.3z M33.2,41.7c-1,4.4-4.3,7.7-8.7,8.7
			c-8.5,1.9-15.9-5.5-14.1-14c1-4.4,4.3-7.7,8.7-8.7C27.6,25.8,35.1,33.2,33.2,41.7z M132.2,17.7c-11.7,0-21.3,9.5-21.3,21.2
			c0,11.7,9.5,21.2,21.3,21.2c6.5,0,14.8-3.2,19.3-12.4h-12c-0.7,0.6-1.4,1.1-2.3,1.6l0,0c-1.4,0.7-3,1.1-5,1.1
			c-7.3,0-10.2-5.6-10.4-7.2l31.2,0c0.1-1,0.3-2.1,0.4-3.1C154,27.2,143.7,17.7,132.2,17.7z M121.4,35c0-0.1,2.6-7.4,10.8-7.4
			c8.1,0,10.8,7.4,10.8,7.4L121.4,35z M169.1,19.3c0,0,0-1.4,0-1.5c0.4-7.8,8.1-9.1,9.2-9.2l0-8.6c-2.6-0.1-19.4,2.4-19.3,19.2
			c0,0,0,0,0,0c-0.1,0-4.8,0-4.8,0v8.3h4.8v32.1l10.1,0V27.5h10.7l10,18.6l-14.5,26.8l11.5,0l14.5-26.8l-14.5-26.8L169.1,19.3z
			 M204.4,19.3l-6.2,11.6l5.7,10.6l12-22.2L204.4,19.3z M93.9,19.3c-11.2-4.3-20.1,2.4-20.1,2.4L72,19.3h-8.2V73l9.9,0V56.2
			c0,0,5.4,4,12.6,4c12.4,0,22.4-10.7,21.1-23.3C106.6,29,101.3,22.1,93.9,19.3z M96.9,41.7c-1,4.4-4.3,7.7-8.7,8.7
			c-8.5,1.9-15.9-5.5-14.1-14c1-4.4,4.3-7.7,8.7-8.7C91.4,25.8,98.8,33.2,96.9,41.7z"/>
	</g>
</g>
</svg>
